<?xml version="1.0" encoding="iso-8859-1"?>
<!-- Generator: Adobe Illustrator 19.0.0, SVG Export Plug-In . SVG Version: 6.00 Build 0)  -->
<svg version="1.1" id="Capa_1" xmlns="http://www.w3.org/2000/svg" xmlns:xlink="http://www.w3.org/1999/xlink" x="0px" y="0px"
	 viewBox="0 0 512.001 512.001" style="enable-background:new 0 0 512.001 512.001;" xml:space="preserve">
<path style="fill:#FCB12B;" d="M417,401.723h-81c-8.284,0-15-6.716-15-15v-88.555c0-8.284,6.716-15,15-15s15,6.716,15,15v73.555h66
	c8.284,0,15,6.716,15,15S425.284,401.723,417,401.723z"/>
<path style="fill:#2892FC;" d="M457,331.723c-30.327,0-55,24.673-55,55s24.673,55,55,55s55-24.673,55-55
	S487.327,331.723,457,331.723z"/>
<path style="fill:#FAD557;" d="M256,431.723c-8.284,0-15-6.716-15-15V298.168c0-8.284,6.716-15,15-15s15,6.716,15,15v118.555
	C271,425.007,264.284,431.723,256,431.723z"/>
<path style="fill:#FCB12B;" d="M256,283.168v148.555c8.284,0,15-6.716,15-15V298.168C271,289.884,264.284,283.168,256,283.168z"/>
<path style="fill:#FAD557;" d="M176,401.723H95c-8.284,0-15-6.716-15-15s6.716-15,15-15h66v-73.555c0-8.284,6.716-15,15-15
	s15,6.716,15,15v88.555C191,395.007,184.284,401.723,176,401.723z"/>
<path style="fill:#F9F9F9;" d="M436.236,104.188c-13.437-53.803-62.005-92.393-118.254-92.393c-21.805,0-42.693,5.623-61.127,16.366
	c-19.523-17.854-45.122-27.884-72.019-27.884c-57.693,0-104.847,45.991-106.729,103.233C32.446,116.273,0,158.08,0,206.381
	c0,58.883,47.904,106.787,106.787,106.787h298.426c58.883,0,106.787-47.904,106.787-106.787
	C512,159.17,480.688,117.696,436.236,104.188z"/>
<path style="fill:#DFE4EA;" d="M436.236,104.188c-13.437-53.803-62.005-92.393-118.254-92.393c-21.805,0-42.693,5.623-61.127,16.366
	c-0.282-0.258-0.57-0.509-0.854-0.763v285.77h149.213c58.883,0,106.787-47.904,106.787-106.787
	C512,159.17,480.688,117.696,436.236,104.188z"/>
<g>
	<path style="fill:#72A3FC;" d="M256,401.723c-30.327,0-55,24.673-55,55s24.673,55,55,55s55-24.673,55-55
		S286.327,401.723,256,401.723z"/>
	<path style="fill:#72A3FC;" d="M55,331.723c-30.327,0-55,24.673-55,55s24.673,55,55,55s55-24.673,55-55S85.327,331.723,55,331.723z
		"/>
</g>
<path style="fill:#2892FC;" d="M256,401.723v110c30.327,0,55-24.673,55-55S286.327,401.723,256,401.723z"/>
<g>
</g>
<g>
</g>
<g>
</g>
<g>
</g>
<g>
</g>
<g>
</g>
<g>
</g>
<g>
</g>
<g>
</g>
<g>
</g>
<g>
</g>
<g>
</g>
<g>
</g>
<g>
</g>
<g>
</g>
</svg>
